# xmcd
#
# Track frame offsets: 
#        150
#        17925
#        33657
#        61252
#        83375
#        100207
#        120222
#        149090
#        175840
#
# Disc length: 2619 seconds
#
# Revision: 3
# Processed by: cddbd v1.5.2PL0 Copyright (c) Steve Scherf et al.
# Submitted via: ExactAudioCopy v1.0b3
#
DISCID=6f0a3909
DTITLE=Roberta Flack - The Christmas Album
DYEAR=1900
DGENRE=Christmas
TTITLE0=Roberta Flack - The Christmas Song
TTITLE1=Roberta Flack - There's Still My Joy
TTITLE2=Roberta Flack - We Three Kings Of Orient Are
TTITLE3=Roberta Flack - 25th of Last December
TTITLE4=Roberta Flack - As Long As There's Christmas
TTITLE5=Roberta Flack - Because This Child Was Born
TTITLE6=Roberta Flack - When There's Love
TTITLE7=Roberta Flack - Little Drummer Boy
TTITLE8=Roberta Flack - Oh Come All Ye Faithful
EXTD=
EXTT0=
EXTT1=
EXTT2=
EXTT3=
EXTT4=
EXTT5=
EXTT6=
EXTT7=
EXTT8=
PLAYORDER=
